<?xml version="1.0" encoding="utf-8"?>
<!-- Generator: Adobe Illustrator 27.7.0, SVG Export Plug-In . SVG Version: 6.00 Build 0)  -->
<svg version="1.1" id="Layer_1" xmlns="http://www.w3.org/2000/svg" xmlns:xlink="http://www.w3.org/1999/xlink" x="0px" y="0px"
	 viewBox="0 0 368.5 330.43" style="enable-background:new 0 0 368.5 330.43;" xml:space="preserve">
<style type="text/css">
	.st0{fill:#121B3A;}
</style>
<g>
	<polygon class="st0" points="170.87,290.38 153.93,275.16 153.85,275.08 152,275.08 152,299.54 156.9,299.54 156.9,284.3 
		173.84,299.53 173.93,299.6 175.77,299.6 175.77,275.14 170.87,275.14 	"/>
	<path class="st0" d="M195.42,275.15h-9.19v24.39h9.19c9.1,0,13.17-6.13,13.17-12.22C208.59,281.26,204.51,275.15,195.42,275.15z
		 M203.59,287.31c0,5.09-3.18,8.02-8.73,8.02h-3.74v-15.98h3.74C200.41,279.35,203.59,282.25,203.59,287.31z"/>
	<path class="st0" d="M228.23,274.86c-6.94,0-11.98,5.26-11.98,12.51s5.04,12.51,11.98,12.51c6.95,0,11.99-5.26,11.99-12.51
		S235.18,274.86,228.23,274.86z M235.23,287.36c0,5.08-2.55,7.99-7,7.99c-4.45,0-7-2.91-7-7.99s2.55-7.99,7-7.99
		C232.68,279.37,235.23,282.29,235.23,287.36z"/>
	<polygon class="st0" points="268.08,290.38 251.14,275.16 251.05,275.08 249.21,275.08 249.21,299.54 254.11,299.54 254.11,284.3 
		271.05,299.53 271.13,299.6 272.97,299.6 272.97,275.14 268.08,275.14 	"/>
	<polygon class="st0" points="100.36,273.63 95.19,273.63 95.19,299.51 114.67,299.51 114.67,294.75 100.36,294.75 	"/>
	<path class="st0" d="M131.04,274.86c-6.94,0-11.99,5.26-11.99,12.51s5.04,12.51,11.99,12.51s11.99-5.26,11.99-12.51
		S137.99,274.86,131.04,274.86z M138.04,287.36c0,5.08-2.55,7.99-7,7.99c-4.45,0-7-2.91-7-7.99s2.55-7.99,7-7.99
		C135.49,279.37,138.04,282.29,138.04,287.36z"/>
	<path class="st0" d="M325.77,204.02c-1.24-5.25-6.28-8.57-10.22-9.81c-3.32-1.04-7.07-1.23-11.16-0.54c-2.98,0.5-7.2,2.08-8.69,5.2
		c-0.9,1.88-0.68,3.18-0.68,4.82c0,2.36,0,9.88,0.02,11c-3.26-1.06-6.41-2.43-9.69-3.87c-1.52-0.66-3.08-1.35-4.65-1.99
		c-5.42-2.23-12.6-4.85-19.96-5.25c-1.21-0.07-7.35-0.25-9.39,2.8c-0.31,0.46-0.7,1.29-0.61,2.41l-0.02,10.52
		c-1.23,0.03-2.52,0.03-3.86,0.03c-18.31,0-40.67-8.6-62.61-8.6c-23.37,0-40.85,8.6-62.6,8.6c-1.33,0-2.6,0-3.82-0.02v-10.52h-0.02
		c0.09-1.12-0.3-1.94-0.61-2.41c-2.04-3.04-8.18-2.86-9.39-2.8c-7.37,0.41-14.54,3.02-19.96,5.25c-1.57,0.64-3.14,1.33-4.65,1.99
		c-3.28,1.43-6.42,2.81-9.68,3.87l0-7.21c0-4.57,0.23-6.74-0.72-8.61c-1.46-2.88-5.01-4.54-8.62-5.19
		c-3.93-0.72-7.79-0.53-11.18,0.53c-2.95,0.93-5.61,2.64-7.69,4.96c-1.53,1.7-2.43,3.36-2.69,5.31c-0.24,1.84-0.04,3.24,0.57,5.65
		c1.61,6.31,2.34,27.17,2.4,29.41c0.07,2.37,0.94,4.36,4.5,5.58c6.5,2.22,14.95,4.09,26.61,1.93c5.58-1.04,10.48-2.74,15.67-4.53
		l1.64-0.58c-0.25,5.1-1.06,9.56-1.92,14.68c-0.25,1.48,0.46,2.34,1.25,2.63c7.2,2.65,14.28,4.5,27.06,4.5
		c28.86,0,40.25-8.12,64.05-8.12c21.73,0,38.05,8.12,63.65,8.12c12.77,0,19.71-1.78,26.91-4.44c0.78-0.29,1.65-1.3,1.37-2.81
		c-0.96-5.13-1.66-9.51-1.91-14.64c3.97,1.37,12.8,4.34,17.36,5.19c10.53,1.97,19.69,1.27,28.42-2.67c2.09-0.94,2.51-2.21,2.6-5.18
		c0.04-1.41,0.07-2.08,0.12-3.48c0.19-5,0.44-9.38,0.75-13.39c0.33-4.2,0.69-7.97,1.39-11.74
		C325.47,208.79,326.41,206.73,325.77,204.02z M70.18,213.28l0,2.31v0.05c-0.19,0.04-0.38,0.09-0.58,0.13
		c-2.79,0.63-7.12,1.33-11.28,0.89c-0.07-2.06-0.15-5.89-0.22-7.37c-0.01-0.15-0.01-0.2-0.01-0.2c0.95,0.21,3.77,0.8,5.97,0.64
		c2.31-0.17,4.56-0.89,6.12-2.05C70.11,209.02,70.18,212.14,70.18,213.28z M45.89,205.19c0.21-1.61,1.15-2.95,1.9-3.78
		c1.66-1.84,3.86-3.27,6.21-4.01c1.71-0.54,3.58-0.81,5.52-0.81c1.32,0,2.68,0.14,4.05,0.37c2.1,0.36,4.99,1.47,6.05,3.43
		c0.67,1.24,0.45,2.28-0.06,3.35c-1.31,2.7-5.38,2.86-8.89,2.5c-2.23-0.23-2.91-0.45-3.95-0.76c-0.74-0.22-1.38-0.28-1.89,0.39
		c-0.18,0.23-0.21,0.47-0.18,1.14c0.03,0.7,0.06,1.51,0.11,2.44c0.06,1.29,0.13,4.84,0.19,6.57c-1.12-0.33-2.2-0.78-3.18-1.39
		C48.6,212.68,45.4,208.89,45.89,205.19z M92.02,217.65c1.26,6.94,2.18,13.75,2.11,20.69l-2.84,1.02c-5.07,1.75-9.86,3.41-15.2,4.41
		c-6.96,1.3-13.44,0.99-17.19,0.46c-4.22-0.6-9.24-2.69-9.83-3.61c-0.06-6.56-0.51-16.21-1.52-24.91c0.51,0.4,1.63,1.3,2.32,1.72
		c6.4,3.87,14.53,2.95,20.47,1.61c5.03-1.13,9.69-3.17,14.2-5.15c1.5-0.65,3.05-1.33,4.59-1.96c5.18-2.13,12.01-4.63,18.87-5.01
		c2.89-0.16,5.85,0.45,6.43,1.32c0.11,0.16,0.16,0.38,0.09,0.57c-0.19,0.54-1.27,1.14-1.53,1.3c-0.27,0.16-0.54,0.31-0.82,0.45
		c-0.36,0.18-0.72,0.35-1.09,0.51c-0.46,0.2-0.93,0.39-1.4,0.57c-0.17,0.06-0.33,0.13-0.5,0.19c-3.96,1.45-13.82,3.37-14.46,3.5
		C94.09,215.46,91.65,215.64,92.02,217.65z M114.49,213.1v6.08c-5.34-0.29-9.63-0.94-13.37-1.75c3.25-0.7,6.77-1.58,9.21-2.47
		C112.11,214.31,113.47,213.69,114.49,213.1z M248.07,260.41c-24.45,0-38.6-8.14-63.46-8.14c-26.94,0-36.96,8.14-64.16,8.14
		c-11.48,0-18.43-1.67-24.9-3.93c2.5-12.26,2.57-24.66,0.21-36.92c6.22,1.68,14.02,3.12,25.92,3.12c24.33,0,42.05-8.6,62.58-8.6
		c21.98,0,39.9,8.6,62.58,8.6c11.89,0,19.69-1.44,25.91-3.12c-2.36,12.27-2.28,24.66,0.23,36.92
		C266.5,258.74,259.55,260.41,248.07,260.41z M254.05,219.18v-6.08c1.02,0.58,2.38,1.21,4.16,1.86c2.58,0.94,6.04,1.8,9.13,2.48
		C263.63,218.25,259.36,218.9,254.05,219.18z M320.41,222.07c-0.32,4.05-0.57,8.47-0.76,13.51c-0.06,1.42-0.1,2.84-0.14,4.26
		c-0.03,0.87-0.1,1.18-1.41,1.79c-6.93,3.23-15.8,3.96-25.64,2.13c-4.82-0.9-15.15-4.46-18.08-5.48
		c-0.06-6.92,0.48-12.99,2.01-19.86c0.13-0.58,0.27-1.3,0.03-1.91c-0.36-0.88-1.75-1.04-1.85-1.06c-2.95-0.49-10.63-1.96-15.19-3.63
		c-3.91-1.43-4.9-2.49-5.09-2.67c-0.12-0.12-0.22-0.26-0.26-0.41c-0.06-0.26,0.06-0.45,0.1-0.5c0.59-0.88,3.53-1.49,6.43-1.32
		c6.86,0.38,13.69,2.88,18.87,5.01c1.53,0.63,3.09,1.31,4.58,1.96c4.51,1.97,9.18,4.01,14.2,5.15c5.93,1.34,14.27,2.15,20.31-1.56
		c0.83-0.51,1.67-1.12,2.47-1.81C320.75,217.78,320.57,219.91,320.41,222.07z M298.36,207.68c2.81,1.99,6.81,2.43,10.16,1.82
		c0.22-0.04,1.08-0.23,1.96-0.42c-0.07,2.13-0.17,5.05-0.25,7.59c-4.16,0.44-8.49-0.26-11.28-0.89c-0.19-0.04-0.38-0.09-0.58-0.13
		C298.36,213.79,298.36,210.49,298.36,207.68z M316.77,214.64c-0.98,0.6-2.05,1.06-3.18,1.39c0.11-3.29,0.18-6.26,0.26-8.03
		c0.03-0.54,0.03-1.12,0.05-1.34c0.07-0.87-0.73-1.73-2.33-1.15c-1.47,0.53-11.38,3.03-12.97-2.58c-0.96-3.39,3.23-5.43,6.34-5.96
		c3.56-0.6,6.79-0.46,9.6,0.43c3.35,1.06,7.11,3.75,7.97,7.39C323.41,208.6,320.28,212.48,316.77,214.64z"/>
	<polygon class="st0" points="108.47,231.83 108.56,234.87 115.86,234.91 116.17,251.31 119.56,251.45 119.25,234.93 126.76,234.98 
		126.63,231.96 	"/>
	<polygon class="st0" points="145.74,229.78 146.6,237.23 136.02,238.97 135.26,231.14 131.86,231.53 133.69,250.56 137.06,250.04 
		136.32,242.03 146.91,240.3 147.82,248.22 151.09,247.56 149.01,229.24 	"/>
	<polygon class="st0" points="160.49,242.67 159.8,237.36 167.08,235.94 166.8,233.09 159.67,234.49 159.23,230.1 169.25,228.12 
		168.92,225.04 155.4,227.72 157.66,246.37 171.03,243.75 170.68,240.67 	"/>
	<path class="st0" d="M195.99,224.06l-9.79-0.56l-1.08,18.94l3.14,0.12l0.32-5.63c1.34-0.07,3.6-0.38,5.37-0.52l4.13,7.27l3.77,0.61
		l-4.95-8.29c3.33-0.79,4.77-2.55,5.05-5.52C202.32,226.6,200.01,224.51,195.99,224.06z M198.83,230.21
		c-0.17,1.84-1.47,2.91-4.48,3.24c-2.07,0.23-4.61,0.44-5.7,0.45l0.42-7.32l6.04,0.14C197.53,226.98,199.05,227.82,198.83,230.21z"
		/>
	<polygon class="st0" points="207.9,245.34 210.99,245.91 213.32,227.39 210.22,226.9 	"/>
	<polygon class="st0" points="218.94,231.29 226.02,232.65 223.54,248.6 226.77,249.28 229.13,233.25 236.39,234.65 236.78,231.82 
		219.34,228.5 	"/>
	<polygon class="st0" points="256.94,232.63 242,232.47 241.75,235.33 252.12,235.37 240.1,250.03 240.01,250.97 256.14,251.69 
		256.22,248.81 245.38,248.36 257.15,233.42 	"/>
	<path class="st0" d="M221.78,80.45c0.01,0.08,0.08,0.1,0.12,0.12c0.06,0.03,0.13,0.07,0.18,0.11c1.78,1.4,2.39,3.36,2.98,5.25
		c0.32,1.04,0.66,2.12,1.19,3.1c0.81,1.49,1.51,1.96,1.81,2.16c0.2,0.13,0.27,0.13,0.28,0.13c0.01-0.01,0.02-0.02,0.03-0.05
		c0.02-0.07-0.01-0.25-0.05-0.42c-0.03-0.13-0.06-0.28-0.08-0.44c-0.19-1.51,0.06-2.31,0.59-4.07l0.18-0.59
		c0.89-2.94,1.11-5.36-0.74-7.64c-0.09-0.11-0.19-0.22-0.31-0.3c-0.16-0.1-0.36-0.16-0.64-0.19c-1.99-0.21-3.13-0.56-4.51-1.38
		c-0.11-0.07-0.4-0.3-0.5-0.24c-0.09,0.06-0.05,0.29-0.04,0.39c0.08,1.26-0.06,2.49-0.44,3.78
		C221.81,80.32,221.77,80.37,221.78,80.45z"/>
	<path class="st0" d="M162.84,96.61c-5.27,1.02-8.43,3.9-9.78,5.13c-0.12,0.11-0.22,0.2-0.31,0.28c-2.09,1.85-4.42,3.61-5.94,4.49
		l-0.24,0.14c-0.28,0.17-0.63,0.37-1.38,0.77c-0.06,0.03-0.24,0.07-0.24,0.27c0,0.2,0.59,0.25,0.86,0.31
		c1.47,0.35,4.47,0.47,5.9,0.33c4.86-0.49,9.66-1.86,13.51-3.86c4.64-2.41,11.68-4.17,14.69-4.37c0.28-0.02,0.51-0.03,0.7-0.03
		c0.28-0.01,0.58-0.02,0.62-0.07c-0.02-0.04-0.22-0.13-0.38-0.2C172.95,96.08,169.08,95.4,162.84,96.61z"/>
	<path class="st0" d="M226.96,127.18c-2.01-3.11-3.66-7.5-9.64-7.22c-4.82,0.22-6.62,4.39-6.91,5.1c-0.24,0.56-0.48,1.23-0.97,1.63
		c-0.68,0.55-4.19,1.01-7.27,4.35c-2.67,2.89-5.54,11.49-0.67,18.5c2.12,3.05,5.44,7.31,9.15,13.86c1.63,2.88,3.35,5.85,3.75,9.15
		c0.32,2.63,0.3,5.68-3.08,8.69c-0.1,0.09-0.54,0.36-0.58,0.49c-0.03,0.09,0.08,0.25,0.4,0.36c0.44,0.15,1.57,0.56,3.67,0.54
		c1.3-0.02,1.89-0.32,4.34-0.74c1.78-0.3,2.1-1,2.17-1.11c0.51-0.83,3.31-7.88-1.48-17.97c-2.46-5.18-7.08-9.12-11.14-13.08
		c-6.7-6.55-5.83-10.9-5.72-11.89c0.14-1.29,1.09-6.07,5.97-7.56c2.8-0.85,4.49-0.26,5.74,0.94c1.3,1.24,4.37,6.21,9.97,6.1
		c4.19-0.08,7.14-1.91,8.63-3.54c1.28-1.41,2.2-3.62,1.77-4.09c-0.31-0.34-0.77,0.39-2.54,0.7
		C230.76,130.68,228.97,130.29,226.96,127.18z"/>
	<path class="st0" d="M135.12,135.21c-0.05,0.14-0.11,0.34-0.18,0.59c-0.23,0.82-1.03,3.1-1.54,3.75c-0.31,0.41-0.4,0.55-0.34,0.66
		c0.13,0.22,0.34,0.17,0.99,0.04c1.01-0.21,1.4-0.44,2.25-0.94l0.14-0.08c2.07-1.21,3.54-2.75,5.1-4.38
		c3.12-3.27,6.65-6.98,16.08-8.58c5.95-1.01,9.94-0.22,13.46,0.47c1.85,0.36,3.59,0.7,5.42,0.75c8.07,0.23,12.79-1.52,15.79-5.79
		c1.56-2.21,3.22-5.93,3.37-7.23c0.01-0.07-0.02-0.13-0.08-0.15c-0.09-0.03-0.25,0.07-0.53,0.27c-0.42,0.3-3.15,2.31-7.84,3.16
		c-6.6,1.21-10.59,0.72-14.45,0.25c-4.12-0.5-8.01-0.97-14.83,0.42C146.21,120.83,138.31,126.63,135.12,135.21z"/>
	<path class="st0" d="M158.27,77.03c1.12-0.08,2.23-0.31,3.32-0.56c3.25-0.76,6.67-1.16,9.02-0.94c3.16,0.28,3.29,1.69,3,2.26
		c-0.29,0.57-1.07,0.77-1.79,0.64c-1.23-0.22-2.36-1.43-3.66-0.74c-2.86,1.51-1.46,8.6,3.53,8.9c2.75,0.16,3.67-0.8,6.78-1.75
		c1.26-0.38,2.64-0.54,3.94-0.27c1.19,0.25,2.37,1.57,4.62,2.25c2.5,0.76,7.06,1.42,12.18-0.93c5-2.29,6.69-5.26,6.69-5.26
		c0.6,0.57,2.39,2.85-0.1,7.64c-3.5,6.72-3.61,7.27-3.62,9.84c-0.01,2.64,1.3,5.03,1.96,5.77c0.09,0.1,0.21,0.23,0.35,0.21
		c0.06-0.01,0.13-0.04,0.16-0.13c1.96-5.33,4.85-6.7,7.58-10.23c5.82-7.52,6.55-11.04,7.12-14.32c0.63-3.59,0.31-7.64-1.71-13.66
		c-0.07-0.2-0.07-0.25-0.06-0.27c0.04-0.06,0.27,0.16,0.31,0.2c0.3,0.29,0.79,0.96,1.46,2.53c0.58,1.34,1.62,3.25,2.92,4.51
		c1.73,1.68,4.02,2.42,6.54,2.19c2.31-0.21,4.43-1.6,4.29-2.29c-0.06-0.31-0.51-0.18-1.31-0.39c-3.77-1.01-7.99-7.79-7.89-9.03
		c0.02-0.25,0.13-0.48,0.37-0.59c0.78-0.36,1.75,0.43,2.48,1.24c0.24,0.27,0.75,0.9,0.92,0.81c0.26-0.13,0.28-0.53,0.29-0.78
		c0.09-2.01-1.33-4.67-2.05-5.74c-0.37-0.55-1.77-2.68-4.67-4.68c-4.24-2.93-7.87-3.6-8.1-3.64c2.67-0.63,5.13-2.39,4.82-3.11
		c-0.16-0.37-0.95-0.29-2.75-0.4c-3.03-0.18-6.77-2.35-9.59-3.3c-2.82-0.95-5.98-0.35-7.3,0.63c-1.26,0.93-1.35,0.95-2.19,0.53
		c-2.14-1.1-3.99-0.93-5.95-0.57c-4.04,0.73-5.19,3.43-5.06,3.91c0.15,0.58,1.14,0.07,2.53,0.12c1.66,0.05,2.39,0.65,2.43,1.3
		c0.06,1.13-1.27,1.45-1.89,1.66c-1.43,0.48-3.81,1.11-4.69,1.63c-1.19,0.7-2.13,1.81-2.55,2.39c-0.46,0.63-1.14,1.01-2.62,1.67
		c-1.57,0.7-8.79,2.98-10.02,3.44c-1.23,0.46-2.68,0.98-3.4,2.29c-0.72,1.31-0.43,2.38-0.29,2.76c0.14,0.38,0.73,0.82,0.07,2.01
		c-0.66,1.2,0.12,3.05,0.7,4.05c0.55,0.94,1.85,2.6,5.03,1.44c3.86-1.41,6.99-2.08,9.82-1.43c4.64,1.07,2.04,7.07,0.44,7.4
		c-1.54,0.32-2.22-1.1-3.61-2.4c-0.51-0.48-1.17-0.92-2.03-1.18c-2.51-0.74-14.52-0.99-16.19-1.32c-1.67-0.32-1.57-1.23-1.67-2.44
		c-0.1-1.21-1.89-1.23-3.18,0.29c-1.03,1.21-1.28,3.21-0.26,4.47C154.78,76.97,156.69,77.15,158.27,77.03z M199.6,54.23
		c0.36-0.52,1.33-1.58,2.95-2.08c1.99-0.62,5.18-0.64,7.13,1.65c1.88,2.2,0.61,4.81-0.15,5.81c-0.96,1.27-2.39,2-2.77,3.34
		c-0.06,0.22-0.11,0.56-0.26,0.6c-0.22,0.05-0.39-0.13-0.4-0.65c-0.03-1.23,0.22-2.13,1.22-3.46c1.27-1.72,0.82-3.69-0.9-4.91
		c-1.85-1.3-3.78-1.32-6.42,0.01c-0.12,0.06-0.36,0.2-0.48,0.05C199.4,54.46,199.6,54.23,199.6,54.23z M183.56,62.52
		c1-0.45,1.48-0.85,2.82-2.38c0.49-0.55,1.22-1.1,1.91-1.51c0.79-0.46,1.52-0.51,2.18-0.42c1.49,0.21,2.99,0.9,3.97,2.07
		c0.2,0.24,0.52,0.63,0.43,0.93c-0.06,0.2-0.43,0.14-0.9,0.35c-0.71,0.31-1.78,0.71-3.62,0.9c-3.21,0.34-4.57-0.6-6.64,0.22
		c-0.24,0.09-0.35,0.11-0.37,0.05C183.3,62.67,183.38,62.6,183.56,62.52z"/>
	<path class="st0" d="M154.67,116.26c5.84-3.11,10.62-2.82,24.67-1.92c0.54,0.03,1.08,0.05,1.6,0.05c12.23,0,19.8-8.65,19.89-8.76
		c0.09-0.12,0.11-0.16,0.11-0.27c0-0.09-0.08-0.22-0.08-0.22c-0.66-0.86-2.43-3.15-1.39-7.24c0.01-0.04,0.02-0.12,0.01-0.17
		c-0.03-0.12-0.12-0.04-0.21,0.07c-1.62,1.97-3.59,3.21-6.38,4.02c-2.53,0.73-5.07,0.79-7.52,0.86c-1.08,0.03-2.19,0.06-3.27,0.14
		c-5.51,0.45-12.1,2.53-18.07,5.72c-5.04,2.69-8.83,5.74-9.51,7.64c-0.01,0.03-0.03,0.07,0.01,0.12
		C154.59,116.33,154.65,116.28,154.67,116.26z"/>
	<path class="st0" d="M168.92,92.64c3.19,0.24,5.45,0.65,7.81,1.41c1.39,0.46,2.79,1.05,4.13,1.62c4.79,2.02,9.31,3.94,14.74,1.05
		c5.28-2.82,7.25-8.47,7.33-9.5c0.03-0.28-0.08-0.34-0.17-0.27c-0.47,0.34-1.34,0.97-2.45,1.59c-5.49,3.05-9.51,2.54-14.16,1.95
		c-2.06-0.26-4.33-0.55-6.95-0.55c-0.73,0-1.49,0.02-2.28,0.07c-3.23,0.18-6.3,0.88-9.14,2.09c-0.52,0.22-0.51,0.31-0.5,0.38
		c0.07,0.09,0.64,0.11,1.01,0.13C168.49,92.61,168.71,92.62,168.92,92.64z"/>
	<path class="st0" d="M221.34,83.95c-0.01,0.02-0.02,0.06-0.03,0.11c-0.19,0.89-0.75,2.98-1.49,4.49c-1.89,3.86-4.13,6.36-6.95,9.53
		l-0.19,0.21c-0.32,0.36-0.64,0.71-0.96,1.06c-2.13,2.32-4.14,4.51-4.36,7.99c-0.23,3.83,2.36,7.41,6.17,8.52
		c0.87,0.25,2.39,0.2,2.47-0.09c0.05-0.17-0.78-0.77-0.97-0.92c-0.57-0.46-1.06-1.07-1.46-1.82c-0.78-1.45-1.11-3-0.88-4.14
		c0.52-2.58,1.94-3.47,2.4-3.76l0.08-0.05c0.13-0.09,0.31-0.18,0.44-0.1c0.09,0.05,0.13,0.15,0.12,0.28
		c-0.06,1.14,0.85,3.19,1.06,3.42c0.24,0.26,0.38,0.63,0.76,0.58c0.38-0.05,0.15-0.54,0.17-0.82c0.12-2.25,1.15-4.03,2.62-6.12
		c3.43-4.87,3.24-10.72,2.99-13.01c-0.15-1.47-1.12-4.8-1.93-5.34C221.39,83.98,221.36,83.96,221.34,83.95z"/>
	<path class="st0" d="M203.88,108.25c-0.05-0.04-0.11-0.04-0.27,0.06c-0.17,0.11-2.21,1.34-3.69,3.58c-1.16,1.76-1.6,3.31-2.06,4.94
		c-0.27,0.97-0.55,1.97-1,3.09c-1.11,2.78-2.18,4.28-4.58,6.42c-0.11,0.1-0.22,0.19-0.32,0.26c-0.12,0.1-0.21,0.17-0.17,0.27
		c0.04,0.1,0.24,0.1,0.59,0.08c3.88-0.3,5.7-1,7.67-1.89c1.92-0.86,4.43-2.24,5.74-3.53c1.54-1.52,2.54-2.85,2.54-3.4
		c0-0.23-0.12-0.35-0.47-0.66c-0.16-0.14-0.36-0.32-0.59-0.55c-1.27-1.3-2.1-2.43-2.54-3.46c-1.03-2.42-0.87-4.48-0.8-5.05
		C203.92,108.39,203.94,108.29,203.88,108.25z"/>
	<path class="st0" d="M132.75,145.82c-0.12-0.01-0.22-0.05-0.24,0.05c-0.06,0.33,0.78,1.1,2.02,1.3c2.78,0.44,5.67-0.44,7.76-1.6
		c1.32-0.73,2.57-1.68,3.89-2.69c2.7-2.06,5.77-4.39,10.13-5.17c2.29-0.4,4.61-0.25,6.86-0.11c1.48,0.1,3,0.19,4.51,0.14
		c5.32-0.22,14.91-1.56,19.36-8.07c0.21-0.3,0.32-0.51,0.25-0.6c-0.07-0.08-0.19,0.01-0.41,0.1l-0.51,0.23
		c-2.55,1.16-4.75,2.16-12.14,1.6c-1.77-0.13-3.47-0.44-5.11-0.73c-3.48-0.62-7.08-1.27-11.76-0.44c-4.3,0.76-8.08,2.76-11.57,6.11
		c-0.9,0.86-1.81,1.74-2.69,2.6c-3.16,3.08-4.48,5.2-7.77,6.75C133.77,146.04,132.99,145.83,132.75,145.82z"/>
	<path class="st0" d="M154.77,182.33c0.59,0.13,1.44,0.07,2.02,0.07c2.68,0,3.68,0.71,9.2,0.71c5.26,0,5.92-0.89,12-0.89
		c5.42,0,7.09,0.68,11.16,0.68c4.53,0,5.42-0.4,7.13-0.4c0.94,0,1.82,0.04,2.67,0.04c0.69,0,0.85-1.2,1.04-1.76
		c1.65-4.91-2.49-14.13-5.54-18.65c-2.34-3.47-6.78-7.68-8.99-12.45c-1.55-3.34-0.6-8.63-0.6-10.59c0-0.58,0.04-1.28-0.1-1.34
		c-0.11-0.04-0.96,0.64-1.97,1.08c-2.59,1.15-5.3,2.04-12.37,2.79c-6.6,0.7-10.82-0.53-14.34,0.61c-3.46,1.13-4.56,1.92-7.06,4.05
		c-5.53,4.72-10.93,3.25-12.6,4.57c-1.2,0.94-1.42,1.7-1.3,2.72c0.06,0.55,0.34,1.13,0.72,1.07c0.2-0.03,0.28-0.65,0.77-1.08
		c0.49-0.43,1.36-0.59,2.13-0.08c1.62,1.08,1.74,2.72,4.28,5.85c4.89,6.02,12.78,10.12,13.95,10.87c1.31,0.84,2.32,1.91,2.67,3.44
		c0.34,1.49-1.63,3.56-2.78,5.04C156.25,179.46,154.41,182.25,154.77,182.33z"/>
	<path class="st0" d="M124.38,84.48c0.42,1.04,0.91,2.25,0.86,3.38c-0.01,0.12,0.03,0.24,0.11,0.34c0.26,0.33,1.23,1.35,1.1,3.55
		c-0.08,1.32-0.67,2.56-1.2,3.08c-0.25,0.25-0.53,0.44-0.56,0.58c-0.02,0.11,0.21,0.36,0.64,0.72c1.3,1.08,2.93,0.93,4.04,1.54
		c1.36,0.74,4.92,2.32,6.98,3.49c1.62,0.92,4.37,3.02,4.9,3.81c0.13,0.19,0.27,0.13,0.42,0.1c4.37-1.06,8.51-5.53,10.81-7.33
		c1.39-1.08,3.26-2.04,4.25-2.44c0.18-0.07,0.4-0.16,0.39-0.26c-0.01-0.15-0.35-0.32-0.64-0.42c-0.51-0.17-4.14-1.25-7.32-2.03
		c-3.55-0.87-6.64-1.67-8.42-2.23c-1.86-0.58-3.27-1.08-5.68-3.4c-1.43-1.37-4.89-3.28-6.25-4.04c-2.13-1.19-3.03-1.08-5.37-1.45
		c-0.28-0.04-0.44-0.06-0.66-0.06c-0.35,0-0.35,0.2,0.18,0.81C123.17,82.47,124.01,83.55,124.38,84.48z"/>
	<path class="st0" d="M94.13,93.67c0.55,3.17,1.75,5.34,4.04,7.41c0,0,1.24-0.58,3.85,0.07c1.72,0.43,2.8,1.66,2.8,1.66
		c0.04,0.2-0.52,0.1-0.94,0.1c-0.47,0-0.63,0.23-0.8,0.57c-0.12,0.23-0.45,1.38-0.29,2.26c0.22,1.12,0.6,2.48,1.88,3.41
		c0.02,0.02,0.14,0.05,0.13,0.13c-0.01,0.08-0.11,0.07-0.15,0.07c-3.12,0.17-3.85-2.63-3.86-3.75c-0.01-0.97,0.01-1.56,0.22-2.2
		c0.02-0.05,0.05-0.11,0.03-0.14c-0.01-0.02-0.06-0.02-0.11-0.01c-0.27,0.06-1.24,0.22-1.81,0.58c-0.34,0.21-0.81,0.64-0.91,1.03
		c-0.1,0.41-0.19,1.57-0.06,2.38c0.25,1.61,0.78,2.79,1.32,3.49c1.11,1.45,3.83,2.49,9.43,3.59c2.83,0.56,5.61,1.51,8.37,2.32
		c3.98,1.16,8.39,2.63,12.25,4.38c2.11,0.96,3.27,1.39,5.26,2.63c0.84,0.52,2.06,1.65,2.86,1c1.65-1.34,3.57-3.49,7.32-5.31
		c0.62-0.3,2.17-0.87,3.14-1.21c0.51-0.18,0.75-0.45,0.9-0.73c0.68-1.27,1.71-2.75,2.57-3.89c1.31-1.75,2.85-2.66,2.84-2.79
		c0-0.15-0.1-0.12-0.27-0.1c-4.82,0.51-6.94,0.1-9.8-0.08c-2.1-0.14-4.16-0.31-6.23-0.54c-0.66-0.07-1.33-0.15-2-0.24
		c-2.79-0.36-6.02-0.93-8.83-1.12c-1.64-0.11-3.28-0.05-4.93,0c-1.21,0.04-2.49-0.13-3.36-1.18c-0.88-1.04-1.39-1.35-1.96-1.6
		c-0.12-0.06-0.26-0.08-0.38-0.14c-0.46-0.2-0.68-0.65-0.85-0.91c-0.78-1.17-2.07-1.68-3.4-1.94c-0.26-0.05-0.79-0.05-0.8-0.15
		c0,0,0.66-0.9,2.43-1.14c1.79-0.24,3.17,0.16,3.17,0.16c2.78-2.12,4.05-4.52,4.66-8.11c0.71-0.41,1.35-1.18,1.3-2.74
		c-0.06-1.62-0.73-2.31-1.44-2.61c-1.16-5.42-5.46-9.69-10.9-10.81c0,0-0.08-0.03-0.55-0.09l-0.46-0.07
		c-0.47-1.64-0.49-3.77-0.49-3.77s2.13,0.12,3.09,0.35c0.93,0.24,2.4,1.17,2.73,0.52c0.34-0.69-0.34-0.58-0.34-1.28
		c0-0.72,1.15-0.14,1.15-1.12c0-0.97-1.15-0.38-1.15-1.11c0-0.7,0.9-0.88,0.44-1.5c-0.49-0.68-1.81,0.54-2.82,0.71
		c-0.6,0.1-1.71,0.15-3.03,0.13v-0.04c-0.01-1.33,0.03-2.43,0.14-3c0.17-1.03,1.44-2.44,0.71-2.85c-0.68-0.37-0.8,0.44-1.52,0.44
		c-0.71,0-0.13-1.15-1.09-1.15c-0.99,0-0.42,1.15-1.13,1.15c-0.7,0-0.67-0.76-1.28-0.35c-0.61,0.39,0.28,1.79,0.51,2.76
		c0.24,0.94,0.37,3.06,0.37,3.06l-0.09-0.02c-1.34,0.02-2.41-0.03-3.01-0.13c-1.02-0.17-2.35-1.38-2.85-0.71
		c-0.47,0.62,0.46,0.8,0.46,1.5c0,0.72-1.15,0.14-1.15,1.11c0,0.98,1.15,0.4,1.15,1.12c0,0.7-0.73,0.66-0.35,1.28
		c0.4,0.64,1.79-0.28,2.75-0.52c0.95-0.23,3.07-0.35,3.07-0.35s-0.02,2.28-0.57,3.88c-0.09,0.01-0.17,0.02-0.17,0.02
		c-5.52,1.06-9.89,5.33-11.08,10.8c-0.73,0.27-1.46,0.95-1.53,2.65C92.67,92.51,93.38,93.3,94.13,93.67z M100.27,88.6h5.69
		c0.13,0,0.29-0.11,0.29-0.38v-5.41c0-1.02,0.82-1.83,1.86-1.83c1.02,0,1.85,0.81,1.85,1.83v5.41c0,0.22,0.13,0.38,0.29,0.38h5.58
		c1.02,0,1.84,0.83,1.84,1.86c0,1.02-0.82,1.84-1.84,1.84h-15.56c-1.03,0-1.86-0.82-1.86-1.84C98.41,89.44,99.24,88.6,100.27,88.6z"
		/>
	<path class="st0" d="M148.87,189.73c0.72,0.63,1.41,1.32,2.11,1.98c0.86,0.81,1.73,1.62,2.59,2.43c3.01,2.73,7.03,4.26,11.21,4.26
		c1.11-0.02,2.21-0.03,3.31-0.04c0.75-0.01,4.35,0.06,4.25-0.84c-0.07-0.6-0.8-1.01-1.25-1.37c-0.5-0.4-1-0.81-1.51-1.21
		c-1.29-1.04-2.58-2.08-3.86-3.12c-0.56-0.45-1.12-0.91-1.69-1.36c-2.65-2.14-6.01-3.31-9.5-3.31c-1.15,0-4.6-0.08-5.37,0
		c-0.51,0.06-1.69,0.02-1.69,0.73C147.48,188.49,148.34,189.27,148.87,189.73z"/>
	<path class="st0" d="M173.22,189.6c0.72,0.67,1.43,1.34,2.15,2.02c0.89,0.84,1.79,1.68,2.69,2.52c3.01,2.73,7.03,4.26,11.22,4.26
		c1.09-0.01,2.19-0.03,3.28-0.04c0.87-0.01,1.73-0.02,2.6-0.03c0.65-0.01,1.54,0.05,1.53-0.81c-0.01-0.73-0.71-1.05-1.22-1.46
		c-0.53-0.43-1.07-0.86-1.6-1.29c-1.29-1.04-2.59-2.09-3.88-3.13c-0.48-0.39-0.97-0.78-1.45-1.17c-2.65-2.14-6.01-3.31-9.5-3.31
		h-2.71c-1.73,0-3.31-0.2-3.83,0.23C171.63,188.09,172.73,189.14,173.22,189.6z"/>
	<path class="st0" d="M197.59,189.36c0.74,0.69,1.48,1.39,2.22,2.08c0.96,0.9,1.91,1.8,2.87,2.69c3.02,2.73,7.03,4.26,11.22,4.26
		c1.01-0.01,2.02-0.03,3.03-0.04c0.84-0.01,1.69-0.02,2.53-0.03c0.59-0.01,1.67-0.03,1.78-0.68c0.13-0.79-0.88-1.38-1.53-1.91
		c-0.65-0.53-1.31-1.05-1.96-1.58c-1.32-1.06-2.64-2.13-3.96-3.19c-0.21-0.17-0.42-0.34-0.63-0.51c-2.65-2.14-6.01-3.31-9.5-3.31
		c-1.23,0-5.34-0.21-6.65,0.25C195.81,187.82,197.07,188.87,197.59,189.36z"/>
	<path class="st0" d="M126.67,192.79c0,5.42,9.93,5.6,9.93,5.6h9.81c0.38,0,0.77,0.1,1.08-0.22c0.13-0.13,0.17-0.34,0.15-0.52
		c-0.07-0.56-0.79-1.01-1.18-1.36c-0.49-0.44-0.98-0.88-1.47-1.32c-1.11-1-2.22-2.01-3.33-3.01c-0.93-0.84-1.87-1.69-2.8-2.53
		c-0.34-0.31-0.68-0.61-1.01-0.92c-1-0.9-2.35-1.38-3.73-1.29C130.56,187.44,126.67,188.47,126.67,192.79z"/>
	<path class="st0" d="M222.54,187.09h-0.46c-0.52,0.02-1.13,0.69-0.98,1.22c0.12,0.44,0.73,0.79,1.07,1.07
		c0.9,0.73,1.8,1.47,2.7,2.21c2.25,1.84,4.5,3.67,6.75,5.51c1,0.9,2.35,1.38,3.73,1.29c3.57-0.23,6.79-1.26,6.79-5.59
		c0-5.42-9.93-5.6-9.93-5.6L222.54,187.09z"/>
</g>
</svg>
