<?xml version="1.0" encoding="utf-8"?>
<!-- Generator: Adobe Illustrator 27.7.0, SVG Export Plug-In . SVG Version: 6.00 Build 0)  -->
<svg version="1.1" id="Layer_1" xmlns="http://www.w3.org/2000/svg" xmlns:xlink="http://www.w3.org/1999/xlink" x="0px" y="0px"
	 viewBox="0 0 368.5 330.43" style="enable-background:new 0 0 368.5 330.43;" xml:space="preserve">
<style type="text/css">
	.st0{fill:#121B3A;}
</style>
<g>
	<polygon class="st0" points="175.7,318.1 164.77,308.27 164.72,308.22 163.53,308.22 163.53,324 166.69,324 166.69,314.17 
		177.62,324 177.68,324.04 178.86,324.04 178.86,308.26 175.7,308.26 	"/>
	<path class="st0" d="M191.54,308.26h-5.93V324h5.93c5.87,0,8.5-3.96,8.5-7.88C200.04,312.21,197.41,308.26,191.54,308.26z
		 M196.82,316.12c0,3.29-2.05,5.17-5.63,5.17h-2.41v-10.31h2.41C194.76,310.97,196.82,312.85,196.82,316.12z"/>
	<path class="st0" d="M212.72,308.08c-4.48,0-7.73,3.4-7.73,8.07s3.25,8.07,7.73,8.07c4.48,0,7.74-3.4,7.74-8.07
		S217.2,308.08,212.72,308.08z M217.23,316.15c0,3.28-1.65,5.16-4.52,5.16c-2.87,0-4.51-1.88-4.51-5.16c0-3.28,1.65-5.16,4.51-5.16
		C215.59,310.99,217.23,312.87,217.23,316.15z"/>
	<polygon class="st0" points="238.43,318.1 227.5,308.27 227.45,308.22 226.26,308.22 226.26,324 229.42,324 229.42,314.17 
		240.35,324 240.4,324.04 241.59,324.04 241.59,308.26 238.43,308.26 	"/>
	<polygon class="st0" points="130.2,307.28 126.87,307.28 126.87,323.98 139.44,323.98 139.44,320.91 130.2,320.91 	"/>
	<path class="st0" d="M150,308.08c-4.48,0-7.73,3.4-7.73,8.07s3.25,8.07,7.73,8.07c4.48,0,7.73-3.4,7.73-8.07
		S154.49,308.08,150,308.08z M154.52,316.15c0,3.28-1.65,5.16-4.52,5.16c-2.87,0-4.52-1.88-4.52-5.16c0-3.28,1.65-5.16,4.52-5.16
		C152.88,310.99,154.52,312.87,154.52,316.15z"/>
	<path class="st0" d="M368.22,215.2c-1.61-6.83-8.16-11.13-13.28-12.75c-4.31-1.36-9.19-1.59-14.5-0.7
		c-3.87,0.65-9.36,2.71-11.29,6.75c-1.17,2.45-0.88,4.14-0.88,6.27c0,3.07,0,12.83,0.02,14.3c-4.24-1.37-8.33-3.16-12.59-5.03
		c-1.97-0.86-4.01-1.75-6.05-2.59c-7.05-2.9-16.37-6.3-25.94-6.83c-1.57-0.09-9.55-0.32-12.2,3.63c-0.41,0.6-0.91,1.68-0.79,3.13
		l-0.02,13.67c-1.6,0.04-3.27,0.03-5.01,0.03c-23.79,0-52.85-11.18-81.35-11.18c-30.37,0-53.08,11.18-81.35,11.18
		c-1.72,0-3.38,0-4.96-0.03V221.4H98c0.12-1.45-0.39-2.52-0.79-3.13c-2.65-3.96-10.63-3.72-12.2-3.63
		c-9.57,0.53-18.89,3.93-25.94,6.83c-2.04,0.84-4.08,1.73-6.05,2.59c-4.26,1.86-8.35,3.65-12.58,5.02l0-9.37
		c0-5.94,0.29-8.76-0.94-11.19c-1.89-3.75-6.52-5.89-11.2-6.75c-5.1-0.93-10.13-0.69-14.53,0.69c-3.83,1.21-7.28,3.44-9.99,6.44
		c-1.99,2.21-3.16,4.37-3.5,6.9c-0.32,2.39-0.06,4.21,0.75,7.34c2.09,8.2,3.04,35.3,3.12,38.22c0.09,3.08,1.22,5.66,5.85,7.25
		c8.44,2.89,19.43,5.32,34.58,2.51c7.25-1.35,13.62-3.56,20.37-5.89l2.14-0.75c-0.33,6.63-1.38,12.43-2.5,19.08
		c-0.32,1.92,0.6,3.04,1.62,3.42c9.35,3.45,18.56,5.85,35.16,5.85c37.51,0,52.31-10.56,83.23-10.56c28.24,0,49.44,10.56,82.71,10.56
		c16.6,0,25.62-2.32,34.97-5.76c1.02-0.38,2.15-1.69,1.78-3.65c-1.24-6.66-2.15-12.36-2.48-19.02c5.16,1.79,16.63,5.64,22.56,6.74
		c13.68,2.56,25.58,1.65,36.93-3.47c2.72-1.23,3.26-2.87,3.38-6.73c0.05-1.83,0.08-2.7,0.16-4.53c0.25-6.5,0.57-12.19,0.98-17.39
		c0.42-5.45,0.89-10.36,1.81-15.25C367.83,221.4,369.05,218.73,368.22,215.2z M36.1,227.24l0,3v0.06c-0.25,0.06-0.5,0.12-0.75,0.17
		c-3.63,0.82-9.26,1.73-14.66,1.16c-0.09-2.68-0.19-7.65-0.28-9.58c-0.01-0.2-0.01-0.26-0.01-0.26c1.23,0.27,4.9,1.04,7.76,0.83
		c3-0.23,5.92-1.15,7.95-2.67C36.01,221.7,36.1,225.75,36.1,227.24z M4.54,216.72c0.28-2.09,1.5-3.83,2.47-4.92
		c2.15-2.4,5.02-4.25,8.06-5.2c2.22-0.7,4.65-1.05,7.18-1.05c1.72,0,3.48,0.18,5.27,0.49c2.73,0.47,6.48,1.92,7.86,4.46
		c0.87,1.61,0.59,2.97-0.08,4.35c-1.71,3.51-6.99,3.71-11.55,3.24c-2.9-0.3-3.79-0.58-5.13-0.98c-0.97-0.29-1.79-0.36-2.46,0.51
		c-0.23,0.3-0.27,0.61-0.23,1.49c0.04,0.91,0.08,1.97,0.14,3.17c0.08,1.67,0.16,6.29,0.24,8.54c-1.46-0.43-2.86-1.02-4.13-1.8
		C8.05,226.46,3.9,221.53,4.54,216.72z M64.48,232.92c1.64,9.02,2.83,17.86,2.75,26.88l-3.69,1.32c-6.59,2.28-12.81,4.43-19.75,5.73
		c-9.04,1.69-17.47,1.29-22.34,0.6c-5.48-0.78-12-3.5-12.77-4.69c-0.08-8.52-0.66-21.06-1.98-32.37c0.67,0.52,2.11,1.69,3.01,2.24
		c8.32,5.02,18.89,3.83,26.6,2.09c6.53-1.47,12.59-4.12,18.45-6.69c1.95-0.85,3.97-1.73,5.96-2.55c6.73-2.77,15.6-6.02,24.53-6.51
		c3.76-0.21,7.6,0.58,8.36,1.72c0.14,0.21,0.21,0.5,0.12,0.74c-0.25,0.71-1.65,1.48-1.99,1.68c-0.35,0.21-0.7,0.4-1.06,0.58
		c-0.47,0.24-0.94,0.46-1.42,0.67c-0.6,0.26-1.2,0.51-1.82,0.74c-0.22,0.08-0.43,0.16-0.65,0.24c-5.14,1.88-17.96,4.38-18.78,4.55
		C67.18,230.07,64,230.31,64.48,232.92z M93.68,227.01v7.9c-6.94-0.37-12.51-1.22-17.37-2.28c4.22-0.91,8.8-2.05,11.97-3.21
		C90.59,228.58,92.35,227.77,93.68,227.01z M267.25,288.48c-31.77,0-50.15-10.58-82.47-10.58c-35.01,0-48.03,10.58-83.37,10.58
		c-14.92,0-23.95-2.17-32.36-5.11c3.25-15.93,3.35-32.04,0.28-47.98c8.09,2.18,18.22,4.05,33.68,4.05
		c31.62,0,54.65-11.18,81.31-11.18c28.56,0,51.85,11.18,81.32,11.18c15.45,0,25.59-1.87,33.67-4.05
		c-3.06,15.94-2.96,32.05,0.3,47.97C291.21,286.31,282.18,288.48,267.25,288.48z M275.04,234.91v-7.9c1.33,0.76,3.09,1.57,5.41,2.42
		c3.35,1.22,7.84,2.34,11.86,3.22C287.48,233.7,281.93,234.54,275.04,234.91z M361.26,238.66c-0.41,5.26-0.73,11-0.99,17.56
		c-0.07,1.84-0.14,3.69-0.19,5.53c-0.03,1.14-0.12,1.53-1.84,2.33c-9.01,4.2-20.53,5.15-33.31,2.77
		c-6.27-1.17-19.69-5.79-23.49-7.12c-0.08-8.99,0.62-16.88,2.61-25.8c0.17-0.75,0.36-1.69,0.04-2.48c-0.47-1.14-2.28-1.35-2.41-1.38
		c-3.83-0.64-13.82-2.55-19.74-4.72c-5.09-1.86-6.37-3.24-6.61-3.47c-0.16-0.15-0.28-0.34-0.33-0.54c-0.08-0.33,0.08-0.58,0.13-0.66
		c0.76-1.14,4.59-1.93,8.36-1.72c8.92,0.49,17.79,3.74,24.53,6.51c1.99,0.82,4.01,1.7,5.96,2.55c5.86,2.56,11.92,5.21,18.45,6.69
		c7.71,1.74,18.55,2.8,26.39-2.02c1.08-0.66,2.17-1.45,3.21-2.35C361.7,233.08,361.47,235.85,361.26,238.66z M332.61,219.97
		c3.66,2.58,8.85,3.16,13.2,2.36c0.29-0.05,1.41-0.29,2.55-0.54c-0.09,2.77-0.22,6.57-0.33,9.86c-5.4,0.57-11.03-0.34-14.66-1.16
		c-0.25-0.06-0.5-0.12-0.75-0.17C332.61,227.9,332.61,223.62,332.61,219.97z M356.53,229c-1.27,0.78-2.67,1.37-4.13,1.8
		c0.14-4.27,0.23-8.13,0.34-10.43c0.03-0.71,0.04-1.45,0.07-1.75c0.08-1.13-0.95-2.24-3.02-1.49c-1.92,0.69-14.78,3.94-16.85-3.35
		c-1.25-4.41,4.2-7.06,8.23-7.74c4.63-0.78,8.82-0.59,12.47,0.56c4.35,1.37,9.24,4.87,10.36,9.6
		C365.16,221.15,361.09,226.2,356.53,229z"/>
	<polygon class="st0" points="85.86,251.35 85.97,255.3 95.46,255.35 95.86,276.65 100.26,276.84 99.86,255.37 109.62,255.44 
		109.45,251.52 	"/>
	<polygon class="st0" points="134.28,248.68 135.4,258.37 121.66,260.63 120.67,250.45 116.25,250.95 118.63,275.68 123.01,275 
		122.05,264.6 135.81,262.35 136.99,272.64 141.23,271.79 138.53,247.98 	"/>
	<polygon class="st0" points="153.45,265.43 152.56,258.53 162.01,256.68 161.66,252.99 152.39,254.8 151.82,249.1 164.83,246.52 
		164.41,242.52 146.84,246 149.78,270.24 167.15,266.83 166.69,262.83 	"/>
	<path class="st0" d="M199.59,241.25l-12.73-0.72l-1.41,24.62l4.09,0.16l0.42-7.32c1.75-0.09,4.68-0.5,6.98-0.67l5.36,9.44l4.9,0.79
		l-6.43-10.77c4.33-1.02,6.2-3.31,6.57-7.18C207.81,244.55,204.81,241.84,199.59,241.25z M203.27,249.23
		c-0.22,2.39-1.91,3.78-5.82,4.21c-2.69,0.3-5.99,0.58-7.41,0.58l0.54-9.52l7.85,0.18C201.59,245.04,203.56,246.13,203.27,249.23z"
		/>
	<polygon class="st0" points="215.07,268.89 219.07,269.64 222.1,245.57 218.07,244.93 	"/>
	<polygon class="st0" points="229.4,250.64 238.6,252.41 235.38,273.14 239.58,274.01 242.65,253.19 252.08,255 252.58,251.34 
		229.93,247.01 	"/>
	<polygon class="st0" points="278.79,252.39 259.38,252.18 259.05,255.89 272.52,255.95 256.9,274.99 256.79,276.21 277.75,277.15 
		277.85,273.41 263.77,272.82 279.06,253.41 	"/>
	<path class="st0" d="M233.1,54.63c0.02,0.1,0.1,0.12,0.16,0.16c0.08,0.05,0.16,0.1,0.23,0.15c2.32,1.82,3.11,4.37,3.87,6.83
		c0.42,1.35,0.86,2.76,1.54,4.02c1.05,1.94,1.96,2.54,2.35,2.8c0.25,0.18,0.35,0.17,0.37,0.16c0.01-0.01,0.03-0.03,0.04-0.06
		c0.03-0.09-0.02-0.32-0.07-0.54c-0.04-0.18-0.08-0.37-0.1-0.57c-0.24-1.97,0.08-3.01,0.77-5.29l0.23-0.77
		c1.16-3.82,1.44-6.97-0.96-9.92c-0.12-0.14-0.24-0.29-0.4-0.39c-0.2-0.13-0.47-0.21-0.83-0.25c-2.59-0.27-4.07-0.72-5.86-1.79
		c-0.15-0.09-0.52-0.39-0.64-0.32c-0.12,0.07-0.06,0.38-0.05,0.51c0.11,1.63-0.08,3.24-0.57,4.91
		C233.13,54.46,233.08,54.53,233.1,54.63z"/>
	<path class="st0" d="M156.5,75.63c-6.85,1.33-10.96,5.07-12.71,6.67c-0.15,0.14-0.28,0.26-0.4,0.37c-2.71,2.41-5.74,4.7-7.72,5.83
		l-0.31,0.18c-0.36,0.21-0.82,0.48-1.79,0.99c-0.07,0.04-0.31,0.1-0.31,0.35c0,0.26,0.76,0.32,1.12,0.41
		c1.91,0.45,5.81,0.61,7.66,0.43c6.32-0.63,12.55-2.42,17.55-5.01c6.03-3.13,15.18-5.42,19.09-5.68c0.36-0.03,0.66-0.04,0.91-0.04
		c0.37-0.01,0.75-0.03,0.8-0.09c-0.03-0.05-0.29-0.17-0.49-0.27C169.64,74.95,164.61,74.06,156.5,75.63z"/>
	<path class="st0" d="M239.83,115.35c-2.61-4.04-4.75-9.74-12.52-9.38c-6.27,0.29-8.6,5.71-8.98,6.63c-0.31,0.73-0.62,1.6-1.26,2.11
		c-0.88,0.71-5.44,1.31-9.45,5.65c-3.47,3.76-7.2,14.92-0.87,24.04c2.76,3.97,7.07,9.49,11.89,18.01c2.12,3.75,4.35,7.6,4.88,11.89
		c0.42,3.41,0.39,7.38-4.01,11.29c-0.13,0.12-0.7,0.47-0.76,0.64c-0.04,0.12,0.1,0.32,0.53,0.47c0.57,0.2,2.03,0.73,4.77,0.7
		c1.69-0.02,2.45-0.42,5.63-0.96c2.31-0.39,2.73-1.3,2.82-1.44c0.67-1.07,4.3-10.24-1.92-23.35c-3.2-6.74-9.2-11.85-14.47-17
		c-8.71-8.51-7.57-14.16-7.43-15.45c0.19-1.67,1.41-7.89,7.76-9.83c3.63-1.11,5.84-0.34,7.46,1.22c1.68,1.62,5.68,8.06,12.95,7.93
		c5.44-0.1,9.28-2.48,11.21-4.6c1.66-1.83,2.86-4.7,2.29-5.31c-0.4-0.44-0.99,0.51-3.31,0.91
		C244.76,119.9,242.44,119.39,239.83,115.35z"/>
	<path class="st0" d="M120.49,125.79c-0.07,0.19-0.14,0.44-0.23,0.77c-0.3,1.07-1.34,4.03-2,4.88c-0.41,0.53-0.51,0.72-0.44,0.85
		c0.16,0.29,0.45,0.22,1.28,0.05c1.32-0.27,1.82-0.57,2.93-1.22l0.18-0.11c2.69-1.57,4.6-3.58,6.63-5.7
		c4.05-4.25,8.65-9.07,20.9-11.15c7.73-1.31,12.92-0.29,17.49,0.61c2.4,0.47,4.66,0.91,7.05,0.98c10.49,0.29,16.62-1.98,20.52-7.53
		c2.02-2.88,4.19-7.71,4.38-9.4c0.01-0.09-0.03-0.17-0.1-0.19c-0.12-0.03-0.33,0.09-0.69,0.35c-0.54,0.39-4.1,3-10.19,4.11
		c-8.58,1.57-13.77,0.94-18.78,0.33c-5.35-0.65-10.41-1.26-19.27,0.55C134.89,107.1,124.63,114.65,120.49,125.79z"/>
	<path class="st0" d="M150.56,50.18c1.46-0.11,2.9-0.4,4.32-0.73c4.22-0.99,8.67-1.5,11.73-1.23c4.11,0.37,4.28,2.19,3.89,2.94
		c-0.38,0.74-1.4,1-2.33,0.83c-1.6-0.29-3.06-1.86-4.75-0.96C159.7,53,161.52,62.21,168,62.59c3.58,0.21,4.77-1.04,8.81-2.27
		c1.64-0.5,3.43-0.7,5.12-0.35c1.55,0.33,3.08,2.04,6,2.92c3.25,0.98,9.17,1.85,15.83-1.2c6.5-2.98,8.7-6.83,8.7-6.83
		c0.78,0.75,3.1,3.71-0.13,9.92c-4.54,8.74-4.7,9.44-4.71,12.78c-0.01,3.44,1.68,6.54,2.54,7.49c0.12,0.13,0.28,0.29,0.46,0.27
		c0.08-0.01,0.16-0.05,0.21-0.16c2.55-6.93,6.3-8.7,9.85-13.29c7.56-9.77,8.51-14.34,9.26-18.61c0.82-4.67,0.4-9.92-2.22-17.76
		c-0.09-0.26-0.09-0.33-0.07-0.35c0.06-0.08,0.36,0.21,0.41,0.26c0.39,0.37,1.02,1.25,1.9,3.28c0.75,1.74,2.1,4.22,3.8,5.86
		c2.25,2.18,5.23,3.15,8.49,2.85c3-0.28,5.76-2.08,5.58-2.97c-0.08-0.4-0.67-0.23-1.7-0.51c-4.9-1.31-10.38-10.13-10.26-11.73
		c0.02-0.32,0.16-0.62,0.48-0.77c1.01-0.47,2.27,0.56,3.22,1.62c0.31,0.35,0.97,1.17,1.19,1.06c0.33-0.17,0.36-0.69,0.37-1.01
		c0.11-2.61-1.73-6.07-2.66-7.46c-0.49-0.72-2.3-3.48-6.06-6.08c-5.51-3.81-10.23-4.68-10.53-4.73c3.47-0.82,6.67-3.1,6.26-4.05
		c-0.21-0.49-1.24-0.38-3.58-0.52c-3.94-0.23-8.8-3.05-12.47-4.28c-3.67-1.23-7.77-0.45-9.49,0.81c-1.64,1.21-1.76,1.24-2.84,0.69
		c-2.78-1.42-5.18-1.2-7.74-0.74c-5.25,0.95-6.74,4.45-6.58,5.09c0.19,0.76,1.48,0.1,3.29,0.15c2.15,0.06,3.1,0.84,3.15,1.68
		c0.08,1.46-1.65,1.88-2.46,2.16c-1.86,0.63-4.94,1.44-6.09,2.12c-1.55,0.91-2.77,2.35-3.32,3.1c-0.6,0.82-1.48,1.31-3.41,2.17
		c-2.04,0.91-11.42,3.87-13.02,4.47c-1.6,0.59-3.48,1.27-4.42,2.97c-0.94,1.7-0.55,3.09-0.38,3.59c0.18,0.5,0.95,1.06,0.08,2.61
		c-0.86,1.56,0.15,3.97,0.91,5.26c0.71,1.22,2.41,3.38,6.53,1.88c5.02-1.83,9.09-2.7,12.76-1.85c6.03,1.39,2.65,9.18,0.57,9.61
		c-2,0.41-2.89-1.42-4.69-3.12c-0.67-0.62-1.52-1.2-2.64-1.53c-3.26-0.96-18.86-1.29-21.03-1.71c-2.17-0.42-2.04-1.6-2.18-3.16
		c-0.14-1.57-2.45-1.6-4.14,0.37c-1.34,1.57-1.66,4.17-0.34,5.81C146.03,50.11,148.51,50.34,150.56,50.18z M204.28,20.57
		c0.46-0.68,1.73-2.05,3.84-2.7c2.59-0.8,6.72-0.83,9.27,2.15c2.44,2.85,0.8,6.24-0.19,7.55c-1.25,1.64-3.11,2.6-3.6,4.35
		c-0.08,0.28-0.14,0.73-0.34,0.78c-0.29,0.07-0.51-0.17-0.53-0.85c-0.03-1.6,0.29-2.76,1.58-4.5c1.66-2.23,1.07-4.8-1.17-6.37
		c-2.41-1.69-4.92-1.72-8.34,0.01c-0.16,0.08-0.47,0.26-0.63,0.07C204.01,20.86,204.28,20.57,204.28,20.57z M183.43,31.33
		c1.3-0.59,1.92-1.1,3.66-3.09c0.63-0.72,1.59-1.43,2.49-1.96c1.02-0.6,1.98-0.67,2.83-0.54c1.94,0.28,3.88,1.17,5.15,2.69
		c0.26,0.31,0.68,0.81,0.56,1.21c-0.08,0.27-0.56,0.18-1.17,0.46c-0.92,0.41-2.31,0.92-4.71,1.17c-4.18,0.44-5.94-0.78-8.63,0.28
		c-0.31,0.12-0.46,0.14-0.48,0.06C183.1,31.53,183.19,31.44,183.43,31.33z"/>
	<path class="st0" d="M145.89,101.17c7.59-4.04,13.8-3.66,32.06-2.5c0.7,0.05,1.4,0.07,2.09,0.07c15.89,0,25.72-11.24,25.84-11.39
		c0.12-0.15,0.14-0.21,0.14-0.35c0-0.12-0.11-0.29-0.11-0.29c-0.86-1.12-3.15-4.09-1.8-9.4c0.01-0.05,0.03-0.15,0.01-0.22
		c-0.05-0.16-0.16-0.05-0.27,0.09c-2.11,2.56-4.66,4.17-8.29,5.22c-3.28,0.95-6.58,1.03-9.77,1.11c-1.4,0.04-2.85,0.08-4.25,0.19
		c-7.16,0.58-15.72,3.29-23.48,7.43c-6.55,3.49-11.48,7.46-12.36,9.93c-0.01,0.04-0.04,0.09,0.01,0.16
		C145.78,101.26,145.86,101.19,145.89,101.17z"/>
	<path class="st0" d="M164.4,70.47c4.15,0.32,7.09,0.85,10.14,1.83c1.81,0.6,3.62,1.37,5.37,2.11c6.23,2.63,12.1,5.12,19.15,1.36
		c6.86-3.66,9.43-11.01,9.53-12.34c0.04-0.36-0.1-0.44-0.22-0.35c-0.61,0.44-1.75,1.27-3.18,2.06c-7.14,3.97-12.36,3.3-18.4,2.54
		c-2.67-0.34-5.63-0.71-9.03-0.71c-0.95,0-1.94,0.03-2.96,0.1c-4.2,0.24-8.19,1.15-11.87,2.72c-0.68,0.29-0.66,0.4-0.65,0.49
		c0.09,0.12,0.83,0.15,1.31,0.16C163.85,70.44,164.13,70.44,164.4,70.47z"/>
	<path class="st0" d="M232.52,59.18c-0.01,0.03-0.02,0.08-0.04,0.14c-0.25,1.16-0.98,3.87-1.94,5.84
		c-2.46,5.01-5.36,8.27-9.04,12.39l-0.24,0.27c-0.42,0.47-0.84,0.92-1.25,1.37c-2.77,3.02-5.39,5.86-5.67,10.39
		c-0.31,4.98,3.07,9.63,8.01,11.08c1.13,0.33,3.11,0.26,3.22-0.11c0.06-0.22-1.02-1-1.26-1.19c-0.74-0.59-1.37-1.39-1.9-2.36
		c-1.02-1.89-1.45-3.9-1.15-5.38c0.68-3.35,2.52-4.51,3.12-4.89l0.11-0.07c0.17-0.12,0.4-0.23,0.58-0.13
		c0.12,0.07,0.17,0.19,0.16,0.37c-0.08,1.48,1.11,4.14,1.38,4.44c0.31,0.34,0.5,0.82,0.99,0.75c0.49-0.06,0.2-0.7,0.22-1.06
		c0.15-2.93,1.49-5.23,3.4-7.95c4.46-6.33,4.2-13.93,3.89-16.9c-0.2-1.92-1.46-6.24-2.51-6.93
		C232.59,59.22,232.55,59.2,232.52,59.18z"/>
	<path class="st0" d="M209.84,90.75c-0.07-0.05-0.14-0.06-0.35,0.08c-0.22,0.14-2.87,1.74-4.8,4.66c-1.51,2.29-2.08,4.3-2.68,6.42
		c-0.35,1.25-0.72,2.56-1.3,4.01c-1.44,3.61-2.83,5.56-5.95,8.34c-0.14,0.13-0.29,0.24-0.41,0.34c-0.16,0.13-0.28,0.23-0.23,0.35
		c0.05,0.13,0.31,0.13,0.76,0.1c5.04-0.39,7.41-1.3,9.97-2.45c2.49-1.12,5.76-2.91,7.46-4.58c2-1.97,3.3-3.71,3.3-4.42
		c0-0.3-0.16-0.45-0.61-0.85c-0.21-0.18-0.47-0.42-0.77-0.72c-1.65-1.69-2.73-3.16-3.3-4.5c-1.34-3.14-1.14-5.82-1.04-6.56
		C209.89,90.95,209.91,90.81,209.84,90.75z"/>
	<path class="st0" d="M117.41,139.58c-0.15-0.01-0.29-0.06-0.31,0.07c-0.08,0.43,1.02,1.43,2.63,1.68
		c3.61,0.57,7.36-0.57,10.08-2.07c1.71-0.95,3.33-2.18,5.05-3.49c3.51-2.68,7.5-5.71,13.16-6.72c2.97-0.53,5.99-0.33,8.92-0.14
		c1.92,0.13,3.9,0.24,5.87,0.18c6.91-0.28,19.37-2.03,25.16-10.48c0.27-0.38,0.41-0.67,0.32-0.78c-0.09-0.11-0.25,0.01-0.53,0.14
		l-0.66,0.3c-3.32,1.51-6.18,2.81-15.78,2.08c-2.3-0.17-4.51-0.57-6.65-0.95c-4.52-0.81-9.2-1.65-15.29-0.57
		c-5.58,0.99-10.5,3.59-15.04,7.94c-1.17,1.12-2.35,2.26-3.49,3.38c-4.1,4-5.82,6.76-10.1,8.77
		C118.73,139.87,117.72,139.59,117.41,139.58z"/>
	<path class="st0" d="M146.01,187.02c0.76,0.17,1.87,0.1,2.62,0.1c3.48,0,4.78,0.92,11.96,0.92c6.84,0,7.69-1.16,15.6-1.16
		c7.04,0,9.22,0.88,14.5,0.88c5.89,0,7.04-0.52,9.26-0.52c1.23,0,2.36,0.05,3.47,0.05c0.9,0,1.11-1.56,1.35-2.29
		c2.15-6.37-3.23-18.36-7.2-24.24c-3.04-4.51-8.81-9.98-11.69-16.18c-2.01-4.34-0.79-11.22-0.79-13.76c0-0.75,0.05-1.67-0.14-1.74
		c-0.14-0.05-1.25,0.83-2.55,1.41c-3.37,1.49-6.88,2.65-16.08,3.62c-8.58,0.91-14.06-0.69-18.64,0.8c-4.49,1.47-5.93,2.5-9.17,5.26
		c-7.19,6.13-14.2,4.22-16.38,5.94c-1.56,1.23-1.85,2.21-1.69,3.54c0.08,0.72,0.44,1.46,0.94,1.39c0.27-0.04,0.36-0.84,1-1.4
		c0.63-0.55,1.76-0.77,2.76-0.1c2.11,1.41,2.26,3.53,5.56,7.6c6.35,7.82,16.61,13.16,18.13,14.13c1.71,1.09,3.01,2.48,3.47,4.48
		c0.44,1.93-2.12,4.62-3.61,6.55C147.95,183.29,145.55,186.92,146.01,187.02z"/>
	<path class="st0" d="M106.54,59.87c0.55,1.35,1.18,2.92,1.12,4.4c-0.01,0.16,0.04,0.32,0.14,0.44c0.34,0.43,1.6,1.76,1.43,4.62
		c-0.1,1.71-0.86,3.32-1.56,4c-0.33,0.32-0.69,0.57-0.73,0.76c-0.03,0.14,0.27,0.47,0.83,0.94c1.68,1.4,3.81,1.21,5.25,2
		c1.77,0.97,6.39,3.01,9.07,4.53c2.11,1.2,5.68,3.92,6.37,4.95c0.16,0.25,0.35,0.18,0.55,0.13c5.68-1.38,11.06-7.19,14.05-9.52
		c1.8-1.4,4.23-2.65,5.52-3.18c0.23-0.1,0.52-0.2,0.5-0.34c-0.02-0.19-0.45-0.41-0.84-0.55c-0.66-0.23-5.38-1.62-9.51-2.63
		c-4.61-1.13-8.63-2.18-10.95-2.89c-2.41-0.75-4.25-1.41-7.39-4.42c-1.85-1.78-6.36-4.26-8.13-5.25c-2.76-1.54-3.94-1.41-6.98-1.89
		c-0.36-0.06-0.58-0.08-0.86-0.07c-0.45,0-0.46,0.26,0.23,1.05C104.95,57.26,106.05,58.67,106.54,59.87z"/>
	<path class="st0" d="M67.22,71.81c0.71,4.12,2.28,6.94,5.24,9.63c0,0,1.61-0.76,5,0.09c2.23,0.56,3.64,2.16,3.64,2.16
		c0.05,0.25-0.68,0.13-1.23,0.13c-0.61,0-0.81,0.3-1.04,0.74c-0.15,0.3-0.59,1.8-0.37,2.93c0.28,1.45,0.78,3.22,2.44,4.43
		c0.03,0.02,0.18,0.06,0.17,0.16c-0.02,0.1-0.15,0.09-0.19,0.09c-4.06,0.22-5-3.42-5.02-4.87c-0.01-1.26,0.01-2.03,0.29-2.86
		c0.02-0.07,0.06-0.14,0.04-0.18c-0.02-0.03-0.08-0.03-0.14-0.01c-0.35,0.07-1.6,0.28-2.35,0.75c-0.44,0.28-1.05,0.84-1.18,1.34
		c-0.13,0.54-0.24,2.04-0.08,3.1c0.33,2.09,1.02,3.62,1.72,4.53c1.44,1.88,4.97,3.23,12.25,4.67c3.68,0.72,7.29,1.97,10.88,3.01
		c5.17,1.51,10.9,3.42,15.91,5.69c2.75,1.24,4.25,1.8,6.83,3.41c1.09,0.68,2.68,2.14,3.72,1.3c2.15-1.74,4.64-4.54,9.52-6.91
		c0.81-0.39,2.83-1.13,4.08-1.57c0.67-0.24,0.97-0.58,1.16-0.95c0.88-1.66,2.22-3.57,3.33-5.06c1.71-2.27,3.7-3.45,3.7-3.63
		c0-0.2-0.14-0.16-0.36-0.13c-6.26,0.67-9.02,0.13-12.73-0.11c-2.73-0.18-5.4-0.4-8.1-0.7c-0.86-0.1-1.73-0.2-2.59-0.31
		c-3.62-0.46-7.82-1.21-11.47-1.45c-2.14-0.14-4.27-0.06-6.4,0.01c-1.57,0.05-3.23-0.17-4.37-1.53c-1.14-1.35-1.8-1.75-2.55-2.08
		c-0.16-0.07-0.34-0.11-0.5-0.18c-0.6-0.26-0.88-0.85-1.1-1.19c-1.01-1.53-2.69-2.19-4.41-2.52c-0.34-0.07-1.03-0.07-1.03-0.2
		c0,0,0.86-1.17,3.16-1.48c2.33-0.31,4.12,0.21,4.12,0.21c3.61-2.76,5.26-5.87,6.05-10.54c0.92-0.53,1.76-1.53,1.7-3.57
		c-0.08-2.1-0.95-3-1.87-3.39C101.58,57.74,96,52.2,88.92,50.74c0,0-0.1-0.04-0.71-0.12l-0.6-0.1c-0.62-2.14-0.64-4.9-0.64-4.9
		s2.77,0.16,4.01,0.45c1.21,0.32,3.12,1.53,3.54,0.68c0.45-0.9-0.44-0.76-0.44-1.66c0-0.94,1.49-0.18,1.49-1.46
		c0-1.26-1.49-0.5-1.49-1.44c0-0.92,1.17-1.14,0.57-1.96c-0.63-0.88-2.35,0.7-3.67,0.93c-0.78,0.13-2.22,0.19-3.94,0.17v-0.06
		c-0.01-1.73,0.03-3.16,0.18-3.9c0.23-1.34,1.87-3.17,0.92-3.7c-0.88-0.49-1.04,0.57-1.97,0.57c-0.93,0-0.16-1.49-1.41-1.49
		c-1.29,0-0.54,1.49-1.47,1.49c-0.92,0-0.87-0.99-1.66-0.45c-0.79,0.51,0.36,2.33,0.67,3.59c0.31,1.22,0.48,3.98,0.48,3.98
		l-0.11-0.02c-1.74,0.02-3.14-0.04-3.91-0.17c-1.32-0.23-3.05-1.8-3.71-0.93c-0.61,0.8,0.59,1.04,0.59,1.96
		c0,0.94-1.5,0.18-1.5,1.44c0,1.28,1.5,0.52,1.5,1.46c0,0.91-0.95,0.86-0.45,1.66c0.52,0.83,2.33-0.36,3.57-0.68
		c1.24-0.3,3.99-0.45,3.99-0.45s-0.03,2.97-0.74,5.04c-0.11,0.01-0.22,0.03-0.22,0.03c-7.18,1.38-12.85,6.93-14.4,14.03
		c-0.95,0.35-1.9,1.24-1.99,3.45C65.32,70.3,66.25,71.33,67.22,71.81z M75.2,65.23h7.4c0.16,0,0.38-0.14,0.38-0.49v-7.02
		c0-1.32,1.07-2.38,2.41-2.38c1.32,0,2.4,1.06,2.4,2.38v7.02c0,0.28,0.17,0.49,0.38,0.49h7.25c1.32,0,2.39,1.08,2.39,2.42
		c0,1.32-1.07,2.39-2.39,2.39H75.2c-1.34,0-2.42-1.07-2.42-2.39C72.78,66.31,73.87,65.23,75.2,65.23z"/>
	<path class="st0" d="M138.35,196.63c0.94,0.82,1.83,1.71,2.74,2.57c1.12,1.05,2.24,2.1,3.37,3.16c3.92,3.55,9.14,5.54,14.57,5.54
		c1.44-0.02,2.87-0.04,4.31-0.06c0.98-0.01,5.65,0.08,5.52-1.09c-0.09-0.78-1.04-1.31-1.62-1.78c-0.65-0.53-1.3-1.05-1.96-1.58
		c-1.67-1.35-3.35-2.7-5.02-4.05c-0.73-0.59-1.46-1.18-2.19-1.77c-3.44-2.77-7.81-4.3-12.34-4.3c-1.49,0-5.98-0.1-6.97,0
		c-0.67,0.07-2.2,0.03-2.2,0.94C136.55,195.02,137.67,196.03,138.35,196.63z"/>
	<path class="st0" d="M170,196.46c0.93,0.87,1.86,1.75,2.79,2.62c1.16,1.09,2.33,2.18,3.49,3.27c3.92,3.55,9.14,5.54,14.57,5.54
		c1.42-0.02,2.84-0.04,4.26-0.06c1.13-0.01,2.25-0.03,3.38-0.04c0.84-0.01,2,0.07,1.98-1.06c-0.01-0.95-0.92-1.37-1.58-1.9
		c-0.69-0.56-1.39-1.12-2.08-1.68c-1.68-1.36-3.36-2.71-5.05-4.07c-0.63-0.51-1.26-1.01-1.88-1.52c-3.44-2.77-7.81-4.3-12.34-4.3
		h-3.52c-2.25,0-4.3-0.26-4.98,0.3C167.93,194.5,169.36,195.86,170,196.46z"/>
	<path class="st0" d="M201.66,196.15c0.96,0.9,1.92,1.8,2.88,2.7c1.24,1.17,2.49,2.33,3.73,3.5c3.92,3.55,9.14,5.54,14.57,5.54
		c1.31-0.02,2.63-0.03,3.94-0.05c1.1-0.01,2.19-0.03,3.29-0.04c0.76-0.01,2.17-0.04,2.31-0.88c0.17-1.03-1.14-1.8-1.99-2.48
		c-0.85-0.68-1.7-1.37-2.55-2.05c-1.72-1.38-3.43-2.77-5.15-4.15c-0.27-0.22-0.54-0.44-0.82-0.66c-3.44-2.77-7.81-4.3-12.34-4.3
		c-1.59,0-6.94-0.27-8.64,0.33C199.35,194.16,200.99,195.52,201.66,196.15z"/>
	<path class="st0" d="M109.5,200.62c0,7.04,12.91,7.27,12.91,7.27h12.75c0.49,0,1,0.13,1.41-0.29c0.16-0.17,0.22-0.44,0.2-0.68
		c-0.09-0.73-1.02-1.31-1.53-1.77c-0.64-0.57-1.27-1.15-1.9-1.72c-1.44-1.3-2.89-2.61-4.33-3.91c-1.21-1.1-2.43-2.19-3.64-3.29
		c-0.44-0.4-0.88-0.79-1.32-1.19c-1.3-1.17-3.05-1.8-4.85-1.68C114.56,193.65,109.5,195,109.5,200.62z"/>
	<path class="st0" d="M234.08,193.2h-0.6c-0.68,0.03-1.46,0.89-1.27,1.59c0.16,0.57,0.95,1.03,1.39,1.38
		c1.17,0.95,2.34,1.91,3.51,2.87c2.93,2.39,5.85,4.77,8.77,7.16c1.3,1.17,3.06,1.8,4.85,1.68c4.63-0.3,8.82-1.64,8.82-7.26
		c0-7.04-12.91-7.27-12.91-7.27L234.08,193.2z"/>
</g>
</svg>
